
   <svg xmlns="http://www.w3.org/2000/svg" viewBox="0 0 800 1151" fill="none">
      <path
        fill="#375E2F"
        d="M801 94c0 46.02 0 92.042-.42 138.547-.804 1.324-1.49 2.15-1.525 3.002-.41 9.773-.669 19.552-1.074 29.325-.274 6.615-.56 13.235-1.116 19.83-1.193 14.134-2.632 28.248-3.842 42.381-.804 9.382-1.094 18.816-2.131 28.17-1.742 15.713-3.848 31.387-5.888 47.066-2.317 17.801-4.46 35.632-7.174 53.374-3.01 19.683-6.076 39.382-10.028 58.89-6.08 30.005-12.654 59.919-19.536 89.752-7.681 33.298-17.762 65.883-30.122 97.78-9.662 24.933-19.379 49.805-33.033 72.49-.032-1.61-.027-2.776-.017-3.941.122-14.96 1.322-30.005.148-44.862-2.58-32.629-11.804-63.89-23.83-94.115-18.033-45.317-37.235-90.17-55.963-135.209-.2-.48-.733-.823-1.577-1.734 0 2.39-.172 4.045.025 5.654 2.858 23.289 4.623 46.785 8.932 69.804 6.246 33.368 14.695 66.317 21.535 99.582 5.633 27.396 7.62 55.063 3.155 82.95-5.137 32.085-18.802 60.52-36.504 87.341-54.406 82.429-152.735 111.746-243.344 72.306-44.927-19.555-79.419-51.261-105.919-92.088-.96-1.479-1.975-2.923-2.964-4.384-.665 1.72-.416 2.834-.099 3.927 4.535 15.645 11.222 30.383 20.51 43.695 45.326 64.97 108.048 101.094 186.132 111.51 1.953.26 3.816 1.196 5.54 2.137-9.175 3.364-18.085 6.696-27.19 9.364-8.353 2.448-16.824 4.829-25.413 6.06-10.073 1.444-19.89-.116-29.487-4.352-11.44-5.048-23.814-8.076-35.004-13.569-20.289-9.96-40.325-20.537-59.872-31.882-24.97-14.492-47.38-32.558-68.157-52.596-7.313-7.053-14.603-14.15-21.517-21.588-7.528-8.097-15.118-16.226-21.765-25.033-10.736-14.223-21.373-28.601-30.856-43.667-11.576-18.39-22.518-37.244-32.603-56.49-8.17-15.595-14.963-31.941-21.843-48.176-12.71-29.992-23.694-60.608-31.137-92.378-4.622-19.731-9.005-39.521-13.261-59.335-4.393-20.45-8.964-40.879-12.614-61.466-4.228-23.838-7.7-47.816-11.197-71.777-3.189-21.846-6.285-43.716-8.84-65.643-2.138-18.363-3.66-36.808-5.029-55.248-1.042-14.04-1.363-28.131-2.163-42.191C2.84 245.777 1.667 244.403 1 243c0-48.688 0-97.375.384-146.47C20.49 89.787 39.18 83.36 57.938 77.14c24.574-8.148 49.168-16.243 73.82-24.155 19.101-6.13 38.209-12.278 57.491-17.797 16.601-4.752 33.401-8.843 50.207-12.83 18.258-4.332 36.515-8.82 54.974-12.106 17.821-3.172 35.904-4.873 53.857-7.328.974-.133 1.812-1.26 2.713-1.925 39.02 0 78.042 0 117.47.377.483.88.559 1.384.726 2.245.226 1.007.285 1.681.502 2.3 20.441 58.342 21.538 117.838 10.613 178.042-10.221 56.324-30.118 109.36-54.704 160.804-21.732 45.473-47.763 88.52-74.063 131.417-.888 1.448-1.72 2.93-2.58 4.397 1.257.05 1.83-.29 2.261-.76 37.014-40.444 74.814-80.203 108.562-123.51 26.922-34.548 51.009-70.838 67.596-111.653 16.826-41.403 23.746-84.169 17.57-128.704-5.06-36.483-18.14-70.144-36.044-102.106-.99-1.768-1.377-3.873-1.594-5.835 1.95-.002 3.501-.235 4.942.062 13.843 2.86 27.71 5.626 41.487 8.785 13.782 3.161 27.588 6.326 41.17 10.233 21.815 6.275 43.518 12.963 65.15 19.85 20.686 6.586 41.219 13.652 61.822 20.5 12.812 4.258 25.642 8.464 38.44 12.761C773.899 84.762 787.444 89.398 801 94M349.519 551.013c15.563-13.074 30.826-26.526 46.75-39.144 34.604-27.422 69.83-54.063 104.259-81.7 27.612-22.166 52.973-46.746 74.012-75.462 26.205-35.766 41.35-75.442 42.43-120.075 1.074-44.343-10.38-86.033-26.965-126.619-.247-.607-.934-1.034-1.276-1.397-2.598 17.98-4.683 35.857-7.83 53.546-9.628 54.106-28.043 104.815-59.99 150.003-18.714 26.47-40.474 50.429-63.053 73.572-35.258 36.141-71.211 71.605-106.521 107.696-29.054 29.696-56.427 60.852-78.91 95.988-29.503 46.105-46.24 95.79-42.432 151.24.116 1.693.256 3.384.385 5.075 1.532-1.692 1.991-3.373 2.329-5.078 6.097-30.828 17.114-59.811 32.682-87.08 21.896-38.349 51.11-70.593 84.13-100.565m426.87-354.616c-6.132 1.536-12.338 2.829-18.388 4.644-68.267 20.48-109.072 65.2-119.262 136.337-5.608 39.15-.242 77.391 11.954 114.75 3.835 11.746 8.635 23.178 12.994 34.753l1.586-.368c0-1.579-.013-3.158.002-4.737.235-24.143-.006-48.303.84-72.424.914-26.035 4.577-51.726 13.294-76.476 10.181-28.906 27.336-53.603 46.946-76.67 16.068-18.9 32.826-37.214 49.198-55.858.902-1.026 1.078-2.689.837-3.951M635.914 538.686c22.416 54.83 46.136 109.19 60.344 167.15 1.92-13.464 3.333-26.806 4.217-40.183 2.018-30.538-2.126-60.094-14.33-88.394-8.437-19.563-16.408-39.327-24.643-58.977-21.98-52.45-38.703-106.082-37.09-163.874.024-.825-.364-1.663-.85-3.722-1.523 3.157-2.637 5.156-3.482 7.262-14.814 36.93-19.06 75.13-8.95 113.584 5.975 22.724 16.192 44.332 24.784 67.154m-109.479-56.76c34.66-25.362 51.999-59.768 54.15-103.68-1.748 1.945-2.58 2.892-3.435 3.818-12.989 14.061-25.34 28.787-39.109 42.038-26.858 25.849-57.64 46.807-88.09 68.117-24.983 17.484-50.057 34.857-72.371 55.817-1.398 1.313-3.411 1.973-5.138 2.936l1.699 1.89c.573-.182 1.165-.32 1.716-.553 23.77-10.042 47.458-20.281 71.322-30.092 27.292-11.22 54.594-22.351 79.256-40.29z"
      ></path>
      <path d="M1 243.469c.667.934 1.84 2.308 1.923 3.744.8 14.06 1.121 28.152 2.163 42.191 1.369 18.44 2.891 36.885 5.03 55.248 2.553 21.927 5.65 43.797 8.839 65.643 3.497 23.961 6.97 47.939 11.197 71.777 3.65 20.587 8.22 41.016 12.614 61.466 4.256 19.814 8.639 39.604 13.261 59.335 7.443 31.77 18.427 62.386 31.137 92.378 6.88 16.235 13.672 32.581 21.843 48.176 10.085 19.246 21.027 38.1 32.603 56.49 9.483 15.066 20.12 29.444 30.856 43.667 6.647 8.807 14.237 16.936 21.765 25.033 6.914 7.437 14.204 14.535 21.517 21.588 20.777 20.038 43.187 38.104 68.157 52.596 19.547 11.345 39.583 21.922 59.872 31.882 11.19 5.493 23.565 8.52 35.004 13.57 9.597 4.235 19.414 5.795 29.487 4.351 8.589-1.231 17.06-3.612 25.414-6.06 9.104-2.668 18.014-6 27.587-9.304 4.341-1.583 8.074-3 11.873-4.21 20.653-6.573 40.096-15.949 59.094-26.178 9.749-5.25 19.16-11.305 28.08-17.87 11.036-8.123 21.636-16.886 31.993-25.87 9.899-8.585 20.118-17.056 28.626-26.93 12.643-14.676 24.367-30.122 34.564-46.786 10.805-17.659 21.033-35.537 29.652-54.344 13.614-23.13 23.331-48.002 32.993-72.936 12.36-31.896 22.44-64.48 30.122-97.779 6.882-29.833 13.457-59.747 19.536-89.753 3.952-19.507 7.017-39.206 10.028-58.889 2.715-17.742 4.857-35.573 7.174-53.374 2.04-15.68 4.146-31.353 5.888-47.066 1.037-9.354 1.327-18.788 2.13-28.17 1.21-14.133 2.65-28.247 3.843-42.381.557-6.595.842-13.215 1.116-19.83.405-9.773.665-19.552 1.074-29.325.036-.853.721-1.678 1.525-2.533.42 306.317.42 612.65.42 918.984-12.407 0-24.735 0-37.561-.357-.052-.81.314-1.42.852-1.693 12.552-6.39 17.547-16.766 16.764-30.586-.76-13.41-12.876-25.35-26.313-25.36-23.653-.016-47.307-.004-70.96-.004H678.3v-6.12h98.34V1061h-5.25c-29.65 0-59.302-.076-88.952.036-12.293.047-21.604 5.197-26.841 16.78-8.376 18.524 2.674 42.747 25.921 42.284 22.978-.458 45.973-.105 68.96-.09 1.75.002 3.5.154 5.57.252-.158 2.207-.27 3.783-.42 5.857H657V1152c-2.37 0-4.741 0-7.556-.469-.444-8.72-.444-16.972-.444-25.722h-98.676v-5.982h98.28v-25.956H550.04l.3-6.144h98.296v-26.24c-.817-.207-1.288-.429-1.758-.43-31.325-.029-62.654-.342-93.973.073-16.047.212-27.884 13.328-27.903 29.397-.012 10.664.014 21.328-.006 31.992-.023 11.981 5.059 20.946 15.593 26.808.992.553 1.616 1.766 2.411 2.673-11.688 0-23.375 0-35.573-.356 8.42-7.685 10.022-17.401 9.717-28.364-.522-18.815-.144-37.656-.144-56.486v-5.492h-23.964v63.881l-1.344.795c-5.635-5.897-11.178-11.884-16.922-17.672-14.202-14.313-28.735-28.306-42.655-42.886-7.211-7.553-28.621-7.547-34.648 2.966-3.292 5.743-5.345 11.339-5.397 17.626-.181 21.995-.07 43.992-.07 65.988-1.389 0-2.778 0-4.583-.469-.417-8.713-.417-16.957-.417-25.69h-77.177v-64.46H286v5.781c0 19.307.064 38.614-.024 57.92-.053 11.775 6.068 19.433 15.888 24.835.84.462 1.43 1.378 2.136 2.083-14.688 0-29.375 0-44.553-.365-.18-.733.057-1.288.451-1.44 12.581-4.866 17.737-14.71 18.048-27.496.263-10.819.297-21.656-.003-32.473-.459-16.56-12.275-28.85-28.803-29.13-22.477-.382-44.967-.266-67.448-.038-15.86.161-28.112 13.664-27.755 28.38.304 12.483-.177 24.986.154 37.468.197 7.403 3.559 13.613 9.406 18.325 2.82 2.273 5.668 4.514 8.503 6.769-40.688 0-81.375 0-122.531-.469C49 1144.147 49 1137.231 49 1130h6.289c20.983 0 41.966-.003 62.948.001 12.968.003 25.375-6.92 28.117-19.107 1.571-6.982 1.303-14.403 1.575-21.637.103-2.748-.18-5.66-1.007-8.268-4.122-13.01-15.448-20.168-29.698-20.056-28.641.226-57.286.067-85.93.067H25v91H1.006C1 849.312 1 546.625 1 243.469zM350.531 1c-.432.665-1.27 1.792-2.244 1.925-17.953 2.455-36.036 4.156-53.857 7.328-18.46 3.285-36.716 7.774-54.974 12.105-16.806 3.988-33.606 8.079-50.207 12.83-19.282 5.52-38.39 11.668-57.491 17.798-24.652 7.912-49.246 16.007-73.82 24.155-18.759 6.22-37.449 12.646-56.554 18.92C1 64.364 1 32.729 1 1h349.531zM801 93.531c-13.557-4.133-27.102-8.77-40.673-13.326-12.8-4.297-25.629-8.503-38.44-12.761-20.604-6.848-41.137-13.914-61.824-20.5-21.63-6.887-43.334-13.575-65.149-19.85-13.582-3.907-27.388-7.072-41.17-10.233-13.777-3.159-27.644-5.925-41.487-8.785-1.44-.297-2.991-.064-5.125-.377-2.373-.336-4.256.059-5.824-.474-10.478-3.556-21.312-3.933-32.204-3.96-.075-.504-.15-1.008-.165-1.888C579.553 1 690.105 1 801 1v92.531z"></path>
      <path
        fill="#375E2F"
        d="M543.469 1152c-1.264-.907-1.888-2.12-2.88-2.673-10.534-5.862-15.616-14.827-15.593-26.808.02-10.664-.006-21.328.006-31.992.019-16.069 11.856-29.185 27.903-29.397 31.319-.415 62.648-.102 93.973-.072.47 0 .94.222 1.758.428v26.241H550.34l-.3 6.144h98.564v25.956h-98.28v5.982H649v25.722c-35.02.469-70.042.469-105.531.469zm114 0c-.469-8.453-.469-16.907-.469-25.881h98.629l.42-5.857c-2.071-.098-3.82-.25-5.57-.251-22.988-.016-45.983-.369-68.96.089-23.248.463-34.298-23.76-25.922-42.284 5.237-11.583 14.548-16.733 26.841-16.78 29.65-.112 59.301-.036 88.952-.036h5.25v26.88H678.3v6.12h5.481c23.654 0 47.308-.012 70.961.005 13.437.01 25.554 11.949 26.313 25.36.783 13.819-4.212 24.196-16.764 30.585-.538.274-.904.883-1.32 1.693-34.992.357-70.013.357-105.502.357zm-485 0c-3.304-2.255-6.151-4.496-8.972-6.769-5.847-4.712-9.21-10.922-9.406-18.325-.331-12.482.15-24.985-.154-37.468-.357-14.716 11.895-28.219 27.755-28.38 22.481-.228 44.971-.344 67.448.037 16.528.28 28.344 12.57 28.803 29.131.3 10.817.266 21.654.003 32.473-.311 12.785-5.467 22.63-18.048 27.495-.394.153-.632.708-.92 1.44-28.666.366-57.353.366-86.51.366m80.476-62.157c-1.654-.614-3.305-1.754-4.963-1.763-21.624-.12-43.249-.085-64.874-.069-1.59.001-3.181.16-4.766.246v37.32h74.65c0-11.878 0-23.338-.047-35.734zM25.469 1152C25 1121.897 25 1091.794 25 1061h6.295c28.643 0 57.288.159 85.93-.067 14.249-.112 25.575 7.046 29.697 20.056.827 2.609 1.11 5.52 1.007 8.268-.272 7.234-.004 14.655-1.575 21.637-2.742 12.186-15.149 19.11-28.117 19.107-20.982-.004-41.965-.001-62.948-.001H49v21.531c-7.688.469-15.375.469-23.531.469m64.031-49h34.14v-14.583H49.36V1103H89.5zm302.969 49c-.469-21.996-.58-43.993-.399-65.988.052-6.287 2.105-11.883 5.397-17.626 6.027-10.513 27.437-10.519 34.648-2.966 13.92 14.58 28.453 28.573 42.655 42.886 5.744 5.788 11.287 11.775 16.922 17.672l1.344-.795v-63.881H517v5.492c0 18.83-.378 37.67.144 56.486.305 10.963-1.298 20.679-10.185 28.364-8.313.356-16.667.356-25.456.007-21.567-21.277-42.7-42.206-64.503-63.799V1152h-24.531zm-88 0c-1.175-.705-1.765-1.621-2.605-2.083-9.82-5.402-15.941-13.06-15.888-24.835.088-19.306.024-38.613.024-57.92v-5.781h23.823v64.46H387v25.69c-27.354.469-54.708.469-82.531.469z"
      ></path>
      <path d="M417.469 1152c-.469-20.985-.469-41.97-.469-64.148 21.804 21.593 42.936 42.522 64.035 63.8-21.056.348-42.077.348-63.566.348z"></path>
      <path
        fill="#FDFDFC"
        d="M349.257 551.25c-32.758 29.735-61.972 61.98-83.868 100.329-15.568 27.268-26.585 56.251-32.682 87.079-.338 1.705-.797 3.386-2.329 5.078-.129-1.691-.269-3.382-.385-5.075-3.808-55.45 12.929-105.135 42.431-151.24 22.484-35.136 49.857-66.292 78.91-95.988 35.311-36.091 71.264-71.555 106.522-107.696 22.579-23.143 44.339-47.101 63.053-73.572 31.947-45.188 50.362-95.897 59.99-150.003 3.147-17.689 5.232-35.566 7.83-53.546.342.363 1.029.79 1.276 1.397 16.586 40.586 28.04 82.276 26.966 126.619-1.08 44.633-16.226 84.31-42.431 120.075-21.04 28.716-46.4 53.296-74.012 75.462-34.429 27.637-69.655 54.278-104.259 81.7-15.924 12.618-31.187 26.07-47.012 39.38z"
      ></path>
      <path
        fill="#FCFDFC"
        d="M685.111 774.607c-8.579 19.252-18.807 37.13-29.612 54.79-10.197 16.663-21.921 32.11-34.564 46.784-8.508 9.875-18.727 18.346-28.626 26.932-10.357 8.983-20.957 17.746-31.993 25.869-8.92 6.565-18.331 12.62-28.08 17.87-18.998 10.23-38.441 19.605-59.094 26.178-3.8 1.21-7.532 2.627-11.693 3.889-2.302-.68-4.165-1.616-6.118-1.877-78.084-10.415-140.806-46.54-186.133-111.509-9.287-13.312-15.974-28.05-20.509-43.695-.317-1.093-.566-2.206.099-3.927.99 1.46 2.004 2.905 2.964 4.384 26.5 40.827 60.992 72.533 105.92 92.088 90.608 39.44 188.937 10.123 243.343-72.306 17.702-26.82 31.367-55.256 36.504-87.341 4.466-27.887 2.478-55.554-3.155-82.95-6.84-33.265-15.29-66.214-21.535-99.582-4.31-23.019-6.074-46.515-8.932-69.804-.197-1.61-.025-3.264-.025-5.654.844.91 1.377 1.253 1.577 1.734 18.728 45.04 37.93 89.892 55.962 135.209 12.027 30.225 21.251 61.486 23.83 94.115 1.175 14.857-.025 29.902-.147 44.862-.01 1.165-.015 2.331.017 3.941zM469.196 3.622c10.8-.33 21.634.047 32.112 3.603 1.568.533 3.451.138 5.372.488.852 2.263 1.24 4.368 2.23 6.136 17.903 31.962 30.984 65.623 36.043 102.106 6.176 44.535-.744 87.3-17.57 128.704-16.587 40.815-40.674 77.105-67.596 111.652-33.748 43.308-71.548 83.067-108.562 123.51-.43.47-1.004.811-2.26.76.858-1.466 1.691-2.948 2.58-4.396 26.3-42.897 52.33-85.944 74.062-131.417 24.586-51.444 44.483-104.48 54.704-160.804 10.925-60.204 9.828-119.7-10.613-178.041-.217-.62-.276-1.294-.502-2.3z"
      ></path>
      <path
        fill="#FCFCFC"
        d="M776.767 196.345c-.136 1.314-.312 2.977-1.214 4.003-16.372 18.644-33.13 36.958-49.198 55.859-19.61 23.066-36.765 47.763-46.946 76.67-8.717 24.749-12.38 50.44-13.294 76.475-.846 24.121-.605 48.281-.84 72.424-.015 1.58-.002 3.158-.002 4.737l-1.586.368c-4.359-11.575-9.16-23.007-12.994-34.753-12.196-37.359-17.562-75.6-11.954-114.75 10.19-71.137 50.995-115.858 119.262-136.337 6.05-1.815 12.256-3.108 18.766-4.696z"
      ></path>
      <path
        fill="#FBFCFB"
        d="M635.772 538.33c-8.45-22.466-18.667-44.074-24.642-66.798-10.11-38.453-5.864-76.653 8.95-113.584.845-2.106 1.959-4.105 3.482-7.262.486 2.06.874 2.897.85 3.722-1.613 57.792 15.11 111.424 37.09 163.874 8.235 19.65 16.206 39.414 24.642 58.977 12.205 28.3 16.349 57.856 14.331 88.394-.884 13.377-2.297 26.72-4.217 40.183-14.208-57.96-37.928-112.32-60.486-167.506zm-109.628-56.197c-24.371 17.733-51.673 28.864-78.965 40.084-23.864 9.81-47.552 20.05-71.322 30.092-.551.233-1.143.371-1.716.554l-1.699-1.89c1.727-.964 3.74-1.624 5.138-2.937 22.314-20.96 47.388-38.333 72.37-55.817 30.452-21.31 61.233-42.268 88.091-68.117 13.77-13.251 26.12-27.977 39.11-42.038.854-.926 1.686-1.873 3.435-3.819-2.152 43.913-19.491 78.319-54.442 103.888z"
      ></path>
      <path d="M252.967 1090.311c.023 11.928.023 23.388.023 35.267h-74.649v-37.321c1.585-.086 3.175-.245 4.766-.246 21.625-.016 43.25-.051 64.874.069 1.658.009 3.309 1.149 4.986 2.231zM89 1103H49.359v-14.583h74.282V1103H89z"></path>
    </svg>